{"asset":{"version":"2.0","generator":"babylon.js glTF exporter for 3dsmax 2021 v20210519.2"},"scene":0,"scenes":[{"nodes":[0]}],"nodes":[{"mesh":0,"scale":[0.0459251851,0.0459251851,0.0459251851],"name":"fishA"}],"meshes":[{"primitives":[{"attributes":{"POSITION":1,"NORMAL":2,"TEXCOORD_0":3},"indices":0,"material":0}],"name":"fishA"}],"accessors":[{"bufferView":0,"componentType":5123,"count":1128,"type":"SCALAR","name":"accessorIndices"},{"bufferView":1,"componentType":5126,"count":1128,"max":[6.23672962,12.084815,30.5032463],"min":[-5.90515,-10.5861225,-30.42559],"type":"VEC3","name":"accessorPositions"},{"bufferView":1,"byteOffset":13536,"componentType":5126,"count":1128,"type":"VEC3","name":"accessorNormals"},{"bufferView":2,"componentType":5126,"count":1128,"type":"VEC2","name":"accessorUVs"}],"bufferViews":[{"buffer":0,"byteLength":2256,"name":"bufferViewScalar"},{"buffer":0,"byteOffset":2256,"byteLength":27072,"byteStride":12,"name":"bufferViewFloatVec3"},{"buffer":0,"byteOffset":29328,"byteLength":9024,"byteStride":8,"name":"bufferViewFloatVec2"}],"buffers":[{"uri":"fishA.bin","byteLength":38352}],"materials":[{"pbrMetallicRoughness":{"baseColorTexture":{"index":0},"metallicFactor":0.0,"roughnessFactor":0.3048167},"name":"fish01"}],"textures":[{"sampler":0,"source":0,"name":"fish01.png"}],"images":[{"uri":"./fish01.png"}],"samplers":[{"magFilter":9729,"minFilter":9987}]}