{"asset":{"version":"2.0","generator":"babylon.js glTF exporter for 3dsmax 2021 v20210519.2"},"scene":0,"scenes":[{"nodes":[0,1,2,3,4,5,6,7,8,9,10]}],"nodes":[{"mesh":0,"translation":[0.108018816,-0.06307053,0.432232082],"rotation":[0.8344015,-0.1478141,-0.0536270775,0.528251231],"scale":[1.14512527,1.14512515,1.14512527],"name":"GeoSphere001"},{"mesh":1,"translation":[-0.1762293,-0.06307053,-0.06229585],"rotation":[-0.961900532,-0.14259313,0.119931445,0.200077489],"scale":[1.35562778,1.35562778,1.35562766],"name":"GeoSphere002"},{"mesh":2,"translation":[0.45235306,-0.06307053,-0.0346780531],"rotation":[-0.9516174,-0.04155094,-0.0241367165,-0.303504854],"scale":[1.52046573,1.108666,1.108274],"name":"GeoSphere003"},{"mesh":3,"translation":[0.134246156,-0.3727438,0.2072648],"rotation":[-0.827378333,0.5058449,-0.06479345,0.235303715],"scale":[0.74104327,0.7410432,0.74104327],"name":"GeoSphere004"},{"mesh":4,"translation":[0.950726449,-0.193625137,0.04890822],"rotation":[-0.737760365,-0.447448,-0.2349268,-0.447559327],"scale":[0.7154656,0.70827055,0.743425548],"name":"GeoSphere005"},{"mesh":5,"translation":[-0.6371662,-0.104060054,0.193524286],"rotation":[-0.953858435,0.211531892,0.173243031,-0.124077439],"scale":[0.948967159,0.94896704,0.9489671],"name":"GeoSphere006"},{"mesh":6,"translation":[-0.57053113,0.289388657,-0.164592341],"rotation":[-0.725140631,0.399805337,0.5192398,0.2114635],"scale":[0.27692616,0.27692607,0.276926219],"name":"GeoSphere008"},{"mesh":7,"translation":[-0.006037712,-0.101743117,-0.452932835],"rotation":[-0.6607264,-0.597251236,0.0459271334,-0.452352],"scale":[0.9904665,0.889674366,0.961529],"name":"GeoSphere009"},{"mesh":8,"translation":[-0.3234452,0.458257973,-0.112573728],"rotation":[-0.725140631,0.399805337,0.5192397,0.211463511],"scale":[0.175268069,0.17526798,0.1752681],"name":"GeoSphere010"},{"mesh":9,"translation":[-0.803389549,0.0149739068,-0.338632226],"rotation":[-0.419929922,0.0129704587,0.810157359,0.408822358],"scale":[0.4350026,0.435002446,0.4350026],"name":"GeoSphere011"},{"mesh":10,"translation":[0.108018816,0.3533586,-0.0360880643],"rotation":[0.8312572,-0.142615721,-0.06010621,0.5339095],"scale":[0.935623348,0.896119058,0.89816767],"name":"GeoSphere012"}],"meshes":[{"primitives":[{"attributes":{"POSITION":1,"NORMAL":2,"TEXCOORD_0":3},"indices":0,"material":0}],"name":"GeoSphere001"},{"primitives":[{"attributes":{"POSITION":5,"NORMAL":6,"TEXCOORD_0":7},"indices":4,"material":0}],"name":"GeoSphere002"},{"primitives":[{"attributes":{"POSITION":9,"NORMAL":10,"TEXCOORD_0":11},"indices":8,"material":0}],"name":"GeoSphere003"},{"primitives":[{"attributes":{"POSITION":13,"NORMAL":14,"TEXCOORD_0":15},"indices":12,"material":0}],"name":"GeoSphere004"},{"primitives":[{"attributes":{"POSITION":17,"NORMAL":18,"TEXCOORD_0":19},"indices":16,"material":0}],"name":"GeoSphere005"},{"primitives":[{"attributes":{"POSITION":21,"NORMAL":22,"TEXCOORD_0":23},"indices":20,"material":0}],"name":"GeoSphere006"},{"primitives":[{"attributes":{"POSITION":25,"NORMAL":26,"TEXCOORD_0":27},"indices":24,"material":0}],"name":"GeoSphere008"},{"primitives":[{"attributes":{"POSITION":29,"NORMAL":30,"TEXCOORD_0":31},"indices":28,"material":0}],"name":"GeoSphere009"},{"primitives":[{"attributes":{"POSITION":33,"NORMAL":34,"TEXCOORD_0":35},"indices":32,"material":0}],"name":"GeoSphere010"},{"primitives":[{"attributes":{"POSITION":37,"NORMAL":38,"TEXCOORD_0":39},"indices":36,"material":0}],"name":"GeoSphere011"},{"primitives":[{"attributes":{"POSITION":41,"NORMAL":42,"TEXCOORD_0":43},"indices":40,"material":0}],"name":"GeoSphere012"}],"accessors":[{"bufferView":0,"componentType":5123,"count":648,"type":"SCALAR","name":"accessorIndices"},{"bufferView":1,"componentType":5126,"count":648,"max":[0.336082369,0.33235997,0.3074242],"min":[-0.298854321,-0.320296228,-0.3074242],"type":"VEC3","name":"accessorPositions"},{"bufferView":1,"byteOffset":7776,"componentType":5126,"count":648,"type":"VEC3","name":"accessorNormals"},{"bufferView":2,"componentType":5126,"count":648,"type":"VEC2","name":"accessorUVs"},{"bufferView":0,"byteOffset":1296,"componentType":5123,"count":648,"type":"SCALAR","name":"accessorIndices"},{"bufferView":1,"byteOffset":15552,"componentType":5126,"count":648,"max":[0.336082369,0.33235997,0.3074242],"min":[-0.298854321,-0.320296228,-0.3074242],"type":"VEC3","name":"accessorPositions"},{"bufferView":1,"byteOffset":23328,"componentType":5126,"count":648,"type":"VEC3","name":"accessorNormals"},{"bufferView":2,"byteOffset":5184,"componentType":5126,"count":648,"type":"VEC2","name":"accessorUVs"},{"bufferView":0,"byteOffset":2592,"componentType":5123,"count":648,"type":"SCALAR","name":"accessorIndices"},{"bufferView":1,"byteOffset":31104,"componentType":5126,"count":648,"max":[0.336082369,0.33235997,0.3074242],"min":[-0.298854321,-0.320296228,-0.3074242],"type":"VEC3","name":"accessorPositions"},{"bufferView":1,"byteOffset":38880,"componentType":5126,"count":648,"type":"VEC3","name":"accessorNormals"},{"bufferView":2,"byteOffset":10368,"componentType":5126,"count":648,"type":"VEC2","name":"accessorUVs"},{"bufferView":0,"byteOffset":3888,"componentType":5123,"count":648,"type":"SCALAR","name":"accessorIndices"},{"bufferView":1,"byteOffset":46656,"componentType":5126,"count":648,"max":[0.336082369,0.33235997,0.3074242],"min":[-0.298854321,-0.320296228,-0.3074242],"type":"VEC3","name":"accessorPositions"},{"bufferView":1,"byteOffset":54432,"componentType":5126,"count":648,"type":"VEC3","name":"accessorNormals"},{"bufferView":2,"byteOffset":15552,"componentType":5126,"count":648,"type":"VEC2","name":"accessorUVs"},{"bufferView":0,"byteOffset":5184,"componentType":5123,"count":648,"type":"SCALAR","name":"accessorIndices"},{"bufferView":1,"byteOffset":62208,"componentType":5126,"count":648,"max":[0.336082369,0.33235997,0.3074242],"min":[-0.298854321,-0.320296228,-0.3074242],"type":"VEC3","name":"accessorPositions"},{"bufferView":1,"byteOffset":69984,"componentType":5126,"count":648,"type":"VEC3","name":"accessorNormals"},{"bufferView":2,"byteOffset":20736,"componentType":5126,"count":648,"type":"VEC2","name":"accessorUVs"},{"bufferView":0,"byteOffset":6480,"componentType":5123,"count":648,"type":"SCALAR","name":"accessorIndices"},{"bufferView":1,"byteOffset":77760,"componentType":5126,"count":648,"max":[0.336082369,0.33235997,0.3074242],"min":[-0.298854321,-0.320296228,-0.3074242],"type":"VEC3","name":"accessorPositions"},{"bufferView":1,"byteOffset":85536,"componentType":5126,"count":648,"type":"VEC3","name":"accessorNormals"},{"bufferView":2,"byteOffset":25920,"componentType":5126,"count":648,"type":"VEC2","name":"accessorUVs"},{"bufferView":0,"byteOffset":7776,"componentType":5123,"count":648,"type":"SCALAR","name":"accessorIndices"},{"bufferView":1,"byteOffset":93312,"componentType":5126,"count":648,"max":[0.336082369,0.33235997,0.3074242],"min":[-0.298854321,-0.320296228,-0.3074242],"type":"VEC3","name":"accessorPositions"},{"bufferView":1,"byteOffset":101088,"componentType":5126,"count":648,"type":"VEC3","name":"accessorNormals"},{"bufferView":2,"byteOffset":31104,"componentType":5126,"count":648,"type":"VEC2","name":"accessorUVs"},{"bufferView":0,"byteOffset":9072,"componentType":5123,"count":648,"type":"SCALAR","name":"accessorIndices"},{"bufferView":1,"byteOffset":108864,"componentType":5126,"count":648,"max":[0.336082369,0.33235997,0.3074242],"min":[-0.298854321,-0.320296228,-0.3074242],"type":"VEC3","name":"accessorPositions"},{"bufferView":1,"byteOffset":116640,"componentType":5126,"count":648,"type":"VEC3","name":"accessorNormals"},{"bufferView":2,"byteOffset":36288,"componentType":5126,"count":648,"type":"VEC2","name":"accessorUVs"},{"bufferView":0,"byteOffset":10368,"componentType":5123,"count":648,"type":"SCALAR","name":"accessorIndices"},{"bufferView":1,"byteOffset":124416,"componentType":5126,"count":648,"max":[0.336082369,0.33235997,0.3074242],"min":[-0.298854321,-0.320296228,-0.3074242],"type":"VEC3","name":"accessorPositions"},{"bufferView":1,"byteOffset":132192,"componentType":5126,"count":648,"type":"VEC3","name":"accessorNormals"},{"bufferView":2,"byteOffset":41472,"componentType":5126,"count":648,"type":"VEC2","name":"accessorUVs"},{"bufferView":0,"byteOffset":11664,"componentType":5123,"count":648,"type":"SCALAR","name":"accessorIndices"},{"bufferView":1,"byteOffset":139968,"componentType":5126,"count":648,"max":[0.336082369,0.33235997,0.3074242],"min":[-0.298854321,-0.320296228,-0.3074242],"type":"VEC3","name":"accessorPositions"},{"bufferView":1,"byteOffset":147744,"componentType":5126,"count":648,"type":"VEC3","name":"accessorNormals"},{"bufferView":2,"byteOffset":46656,"componentType":5126,"count":648,"type":"VEC2","name":"accessorUVs"},{"bufferView":0,"byteOffset":12960,"componentType":5123,"count":648,"type":"SCALAR","name":"accessorIndices"},{"bufferView":1,"byteOffset":155520,"componentType":5126,"count":648,"max":[0.336082369,0.33235997,0.3074242],"min":[-0.298854321,-0.320296228,-0.307370245],"type":"VEC3","name":"accessorPositions"},{"bufferView":1,"byteOffset":163296,"componentType":5126,"count":648,"type":"VEC3","name":"accessorNormals"},{"bufferView":2,"byteOffset":51840,"componentType":5126,"count":648,"type":"VEC2","name":"accessorUVs"}],"bufferViews":[{"buffer":0,"byteLength":14256,"name":"bufferViewScalar"},{"buffer":0,"byteOffset":14256,"byteLength":171072,"byteStride":12,"name":"bufferViewFloatVec3"},{"buffer":0,"byteOffset":185328,"byteLength":57024,"byteStride":8,"name":"bufferViewFloatVec2"}],"buffers":[{"uri":"cloud.bin","byteLength":242352}],"materials":[{"pbrMetallicRoughness":{"baseColorTexture":{"index":0},"metallicFactor":0.0,"roughnessFactor":0.7022211},"name":"cloud"}],"textures":[{"sampler":0,"source":0,"name":"cloud_DIFF.png"}],"images":[{"uri":"./cloud_DIFF.png"}],"samplers":[{"magFilter":9729,"minFilter":9987}]}