{"asset":{"version":"2.0","generator":"babylon.js glTF exporter for 3dsmax 2021 v20210519.2"},"scene":0,"scenes":[{"nodes":[0,1,2,3,4,5,6,7,8,9,10]}],"nodes":[{"mesh":0,"translation":[0.108018816,-0.06307053,0.432232082],"rotation":[0.8344015,-0.147814125,-0.053627003,0.528251231],"scale":[1.0,1.0,0.99999994],"name":"GeoSphere001"},{"mesh":1,"translation":[-0.1762293,-0.06307053,-0.06229585],"rotation":[-0.961900532,-0.14259313,0.119931437,0.200077489],"scale":[1.18382514,1.18382514,1.18382514],"name":"GeoSphere002"},{"mesh":2,"translation":[0.45235306,-0.06307053,-0.0346780531],"rotation":[-0.9516174,-0.041550938,-0.0241367128,-0.3035048],"scale":[1.37421489,1.00202525,1.0016712],"name":"GeoSphere003"},{"mesh":3,"translation":[0.134246156,-0.3727438,0.2072648],"rotation":[-0.827378333,0.5058449,-0.06479345,0.235303715],"scale":[0.74104327,0.7410432,0.74104327],"name":"GeoSphere004"},{"mesh":4,"translation":[0.950726449,-0.193625137,0.04890822],"rotation":[-0.737760365,-0.447447956,-0.234926775,-0.447559327],"scale":[0.6410408,0.634594262,0.6660922],"name":"GeoSphere005"},{"mesh":5,"translation":[-0.6371662,-0.104060054,0.193524286],"rotation":[-0.953858435,0.211531892,0.173243061,-0.124077417],"scale":[0.782427549,0.7824274,0.7824275],"name":"GeoSphere006"},{"mesh":6,"translation":[-0.57053113,0.289388657,-0.164592341],"rotation":[-0.725140631,0.399805337,0.5192397,0.2114635],"scale":[0.252497077,0.252496958,0.2524971],"name":"GeoSphere008"},{"mesh":7,"translation":[-0.003334236,-0.167448416,-0.4819514],"rotation":[-0.660726368,-0.597251236,0.04592699,-0.452351928],"scale":[0.8100791,0.727643669,0.786412],"name":"GeoSphere009"},{"mesh":8,"translation":[-0.3234452,0.458257973,-0.112573728],"rotation":[-0.725140631,0.399805367,0.5192397,0.211463511],"scale":[0.140040785,0.14004074,0.140040815],"name":"GeoSphere010"},{"mesh":9,"translation":[-0.803389549,0.0149739068,-0.338632226],"rotation":[-0.419929951,0.0129704773,0.810157359,0.4088223],"scale":[0.396628678,0.396628559,0.396628737],"name":"GeoSphere011"},{"mesh":10,"translation":[0.108018816,0.3533586,-0.0360880643],"rotation":[0.8312573,-0.142615676,-0.0601062253,0.53390944],"scale":[0.8102039,0.775995,0.77776897],"name":"GeoSphere012"}],"meshes":[{"primitives":[{"attributes":{"POSITION":1,"NORMAL":2,"TEXCOORD_0":3},"indices":0,"material":0}],"name":"GeoSphere001"},{"primitives":[{"attributes":{"POSITION":5,"NORMAL":6,"TEXCOORD_0":7},"indices":4,"material":0}],"name":"GeoSphere002"},{"primitives":[{"attributes":{"POSITION":9,"NORMAL":10,"TEXCOORD_0":11},"indices":8,"material":0}],"name":"GeoSphere003"},{"primitives":[{"attributes":{"POSITION":13,"NORMAL":14,"TEXCOORD_0":15},"indices":12,"material":0}],"name":"GeoSphere004"},{"primitives":[{"attributes":{"POSITION":17,"NORMAL":18,"TEXCOORD_0":19},"indices":16,"material":0}],"name":"GeoSphere005"},{"primitives":[{"attributes":{"POSITION":21,"NORMAL":22,"TEXCOORD_0":23},"indices":20,"material":0}],"name":"GeoSphere006"},{"primitives":[{"attributes":{"POSITION":25,"NORMAL":26,"TEXCOORD_0":27},"indices":24,"material":0}],"name":"GeoSphere008"},{"primitives":[{"attributes":{"POSITION":29,"NORMAL":30,"TEXCOORD_0":31},"indices":28,"material":0}],"name":"GeoSphere009"},{"primitives":[{"attributes":{"POSITION":33,"NORMAL":34,"TEXCOORD_0":35},"indices":32,"material":0}],"name":"GeoSphere010"},{"primitives":[{"attributes":{"POSITION":37,"NORMAL":38,"TEXCOORD_0":39},"indices":36,"material":0}],"name":"GeoSphere011"},{"primitives":[{"attributes":{"POSITION":41,"NORMAL":42,"TEXCOORD_0":43},"indices":40,"material":0}],"name":"GeoSphere012"}],"accessors":[{"bufferView":0,"componentType":5123,"count":108,"type":"SCALAR","name":"accessorIndices"},{"bufferView":1,"componentType":5126,"count":108,"max":[0.356648564,0.372982651,0.3088667],"min":[-0.318105966,-0.364827335,-0.3088667],"type":"VEC3","name":"accessorPositions"},{"bufferView":1,"byteOffset":1296,"componentType":5126,"count":108,"type":"VEC3","name":"accessorNormals"},{"bufferView":2,"componentType":5126,"count":108,"type":"VEC2","name":"accessorUVs"},{"bufferView":0,"byteOffset":216,"componentType":5123,"count":108,"type":"SCALAR","name":"accessorIndices"},{"bufferView":1,"byteOffset":2592,"componentType":5126,"count":108,"max":[0.356648564,0.372982651,0.3088667],"min":[-0.318105966,-0.364827335,-0.3088667],"type":"VEC3","name":"accessorPositions"},{"bufferView":1,"byteOffset":3888,"componentType":5126,"count":108,"type":"VEC3","name":"accessorNormals"},{"bufferView":2,"byteOffset":864,"componentType":5126,"count":108,"type":"VEC2","name":"accessorUVs"},{"bufferView":0,"byteOffset":432,"componentType":5123,"count":108,"type":"SCALAR","name":"accessorIndices"},{"bufferView":1,"byteOffset":5184,"componentType":5126,"count":108,"max":[0.356648564,0.372982651,0.3088667],"min":[-0.318105966,-0.364827335,-0.3088667],"type":"VEC3","name":"accessorPositions"},{"bufferView":1,"byteOffset":6480,"componentType":5126,"count":108,"type":"VEC3","name":"accessorNormals"},{"bufferView":2,"byteOffset":1728,"componentType":5126,"count":108,"type":"VEC2","name":"accessorUVs"},{"bufferView":0,"byteOffset":648,"componentType":5123,"count":108,"type":"SCALAR","name":"accessorIndices"},{"bufferView":1,"byteOffset":7776,"componentType":5126,"count":108,"max":[0.356648564,0.372982651,0.3088667],"min":[-0.318105966,-0.364827335,-0.3088667],"type":"VEC3","name":"accessorPositions"},{"bufferView":1,"byteOffset":9072,"componentType":5126,"count":108,"type":"VEC3","name":"accessorNormals"},{"bufferView":2,"byteOffset":2592,"componentType":5126,"count":108,"type":"VEC2","name":"accessorUVs"},{"bufferView":0,"byteOffset":864,"componentType":5123,"count":108,"type":"SCALAR","name":"accessorIndices"},{"bufferView":1,"byteOffset":10368,"componentType":5126,"count":108,"max":[0.356648564,0.372982651,0.3088667],"min":[-0.318105966,-0.364827335,-0.3088667],"type":"VEC3","name":"accessorPositions"},{"bufferView":1,"byteOffset":11664,"componentType":5126,"count":108,"type":"VEC3","name":"accessorNormals"},{"bufferView":2,"byteOffset":3456,"componentType":5126,"count":108,"type":"VEC2","name":"accessorUVs"},{"bufferView":0,"byteOffset":1080,"componentType":5123,"count":108,"type":"SCALAR","name":"accessorIndices"},{"bufferView":1,"byteOffset":12960,"componentType":5126,"count":108,"max":[0.356648564,0.372982651,0.3088667],"min":[-0.318105966,-0.364827335,-0.3088667],"type":"VEC3","name":"accessorPositions"},{"bufferView":1,"byteOffset":14256,"componentType":5126,"count":108,"type":"VEC3","name":"accessorNormals"},{"bufferView":2,"byteOffset":4320,"componentType":5126,"count":108,"type":"VEC2","name":"accessorUVs"},{"bufferView":0,"byteOffset":1296,"componentType":5123,"count":108,"type":"SCALAR","name":"accessorIndices"},{"bufferView":1,"byteOffset":15552,"componentType":5126,"count":108,"max":[0.356648564,0.372982651,0.3088667],"min":[-0.318105966,-0.364827335,-0.3088667],"type":"VEC3","name":"accessorPositions"},{"bufferView":1,"byteOffset":16848,"componentType":5126,"count":108,"type":"VEC3","name":"accessorNormals"},{"bufferView":2,"byteOffset":5184,"componentType":5126,"count":108,"type":"VEC2","name":"accessorUVs"},{"bufferView":0,"byteOffset":1512,"componentType":5123,"count":108,"type":"SCALAR","name":"accessorIndices"},{"bufferView":1,"byteOffset":18144,"componentType":5126,"count":108,"max":[0.356648564,0.372982651,0.3088667],"min":[-0.318105966,-0.364827335,-0.3088667],"type":"VEC3","name":"accessorPositions"},{"bufferView":1,"byteOffset":19440,"componentType":5126,"count":108,"type":"VEC3","name":"accessorNormals"},{"bufferView":2,"byteOffset":6048,"componentType":5126,"count":108,"type":"VEC2","name":"accessorUVs"},{"bufferView":0,"byteOffset":1728,"componentType":5123,"count":108,"type":"SCALAR","name":"accessorIndices"},{"bufferView":1,"byteOffset":20736,"componentType":5126,"count":108,"max":[0.356648564,0.372982651,0.3088667],"min":[-0.318105966,-0.364827335,-0.3088667],"type":"VEC3","name":"accessorPositions"},{"bufferView":1,"byteOffset":22032,"componentType":5126,"count":108,"type":"VEC3","name":"accessorNormals"},{"bufferView":2,"byteOffset":6912,"componentType":5126,"count":108,"type":"VEC2","name":"accessorUVs"},{"bufferView":0,"byteOffset":1944,"componentType":5123,"count":108,"type":"SCALAR","name":"accessorIndices"},{"bufferView":1,"byteOffset":23328,"componentType":5126,"count":108,"max":[0.356648564,0.372982651,0.3088667],"min":[-0.318105966,-0.364827335,-0.3088667],"type":"VEC3","name":"accessorPositions"},{"bufferView":1,"byteOffset":24624,"componentType":5126,"count":108,"type":"VEC3","name":"accessorNormals"},{"bufferView":2,"byteOffset":7776,"componentType":5126,"count":108,"type":"VEC2","name":"accessorUVs"},{"bufferView":0,"byteOffset":2160,"componentType":5123,"count":108,"type":"SCALAR","name":"accessorIndices"},{"bufferView":1,"byteOffset":25920,"componentType":5126,"count":108,"max":[0.356648564,0.372982651,0.3088667],"min":[-0.318105966,-0.364827335,-0.3088667],"type":"VEC3","name":"accessorPositions"},{"bufferView":1,"byteOffset":27216,"componentType":5126,"count":108,"type":"VEC3","name":"accessorNormals"},{"bufferView":2,"byteOffset":8640,"componentType":5126,"count":108,"type":"VEC2","name":"accessorUVs"}],"bufferViews":[{"buffer":0,"byteLength":2376,"name":"bufferViewScalar"},{"buffer":0,"byteOffset":2376,"byteLength":28512,"byteStride":12,"name":"bufferViewFloatVec3"},{"buffer":0,"byteOffset":30888,"byteLength":9504,"byteStride":8,"name":"bufferViewFloatVec2"}],"buffers":[{"uri":"cloud.bin","byteLength":40392}],"materials":[{"pbrMetallicRoughness":{"baseColorTexture":{"index":0},"metallicFactor":0.0,"roughnessFactor":0.7022211},"name":"cloud"}],"textures":[{"sampler":0,"source":0,"name":"cloud_DIFF.png"}],"images":[{"uri":"texture/cloud_DIFF.png"}],"samplers":[{"magFilter":9729,"minFilter":9987}]}