{"asset":{"version":"2.0","generator":"babylon.js glTF exporter for 3dsmax 2021 v20210519.2"},"scene":0,"scenes":[{"nodes":[0]}],"nodes":[{"mesh":0,"translation":[0.08370011,-1.25217348E-08,0.134805053],"rotation":[2.79396755E-08,2.98023188E-08,-2.98023224E-08,1.0],"scale":[1.261225,1.261225,1.261225],"name":"GeoSphere017"}],"meshes":[{"primitives":[{"attributes":{"POSITION":1,"NORMAL":2,"TEXCOORD_0":3},"indices":0,"material":0}],"name":"GeoSphere017"}],"accessors":[{"bufferView":0,"componentType":5123,"count":1098,"type":"SCALAR","name":"accessorIndices"},{"bufferView":1,"componentType":5126,"count":1098,"max":[0.4535729,0.5455947,0.4978491],"min":[-0.4831849,-0.459495127,-0.8481685],"type":"VEC3","name":"accessorPositions"},{"bufferView":1,"byteOffset":13176,"componentType":5126,"count":1098,"type":"VEC3","name":"accessorNormals"},{"bufferView":2,"componentType":5126,"count":1098,"type":"VEC2","name":"accessorUVs"}],"bufferViews":[{"buffer":0,"byteLength":2196,"name":"bufferViewScalar"},{"buffer":0,"byteOffset":2196,"byteLength":26352,"byteStride":12,"name":"bufferViewFloatVec3"},{"buffer":0,"byteOffset":28548,"byteLength":8784,"byteStride":8,"name":"bufferViewFloatVec2"}],"buffers":[{"uri":"water.bin","byteLength":37332}],"materials":[{"pbrMetallicRoughness":{"baseColorTexture":{"index":0},"metallicFactor":0.0,"roughnessFactor":0.24783428},"name":"RubberDuck_mat1"}],"textures":[{"sampler":0,"source":0,"name":"water.png"}],"images":[{"uri":"./water.png"}],"samplers":[{"magFilter":9729,"minFilter":9987}]}