{"asset":{"version":"2.0","generator":"babylon.js glTF exporter for 3dsmax 2021 v20210519.2"},"scene":0,"scenes":[{"nodes":[0]}],"nodes":[{"mesh":0,"translation":[0.0,-0.481759876,0.0],"scale":[0.3307328,0.243020579,0.243020579],"name":"RubberDuck"}],"meshes":[{"primitives":[{"attributes":{"POSITION":1,"NORMAL":2,"TEXCOORD_0":3},"indices":0,"material":0}],"name":"RubberDuck"}],"accessors":[{"bufferView":0,"componentType":5123,"count":1926,"type":"SCALAR","name":"accessorIndices"},{"bufferView":1,"componentType":5126,"count":1926,"max":[2.058394,5.83388042,3.04866934],"min":[-2.05839419,-0.043482,-3.35766172],"type":"VEC3","name":"accessorPositions"},{"bufferView":1,"byteOffset":23112,"componentType":5126,"count":1926,"type":"VEC3","name":"accessorNormals"},{"bufferView":2,"componentType":5126,"count":1926,"type":"VEC2","name":"accessorUVs"}],"bufferViews":[{"buffer":0,"byteLength":3852,"name":"bufferViewScalar"},{"buffer":0,"byteOffset":3852,"byteLength":46224,"byteStride":12,"name":"bufferViewFloatVec3"},{"buffer":0,"byteOffset":50076,"byteLength":15408,"byteStride":8,"name":"bufferViewFloatVec2"}],"buffers":[{"uri":"rubberduckv4.bin","byteLength":65484}],"materials":[{"pbrMetallicRoughness":{"baseColorTexture":{"index":0},"metallicFactor":0.0,"roughnessFactor":0.165830582},"name":"RubberDuck_mat1"}],"textures":[{"sampler":0,"source":0,"name":"duckv4.png"}],"images":[{"uri":"./duckv4.png"}],"samplers":[{"magFilter":9729,"minFilter":9987}]}