{"asset":{"version":"2.0","generator":"babylon.js glTF exporter for 3dsmax 2021 v20210519.2"},"scene":0,"scenes":[{"nodes":[0]}],"nodes":[{"mesh":0,"translation":[-9.055549E-05,0.1441352,0.0322579853],"scale":[0.422980547,0.422980547,0.422980547],"name":"rocket"}],"meshes":[{"primitives":[{"attributes":{"POSITION":1,"NORMAL":2,"TEXCOORD_0":3},"indices":0,"material":0}],"name":"rocket"}],"accessors":[{"bufferView":0,"componentType":5123,"count":1308,"type":"SCALAR","name":"accessorIndices"},{"bufferView":1,"componentType":5126,"count":1308,"max":[0.798858643,1.121697,0.757019162],"min":[-0.798858762,-1.735014,-0.757019162],"type":"VEC3","name":"accessorPositions"},{"bufferView":1,"byteOffset":15696,"componentType":5126,"count":1308,"type":"VEC3","name":"accessorNormals"},{"bufferView":2,"componentType":5126,"count":1308,"type":"VEC2","name":"accessorUVs"}],"bufferViews":[{"buffer":0,"byteLength":2616,"name":"bufferViewScalar"},{"buffer":0,"byteOffset":2616,"byteLength":31392,"byteStride":12,"name":"bufferViewFloatVec3"},{"buffer":0,"byteOffset":34008,"byteLength":10464,"byteStride":8,"name":"bufferViewFloatVec2"}],"buffers":[{"uri":"rocket.bin","byteLength":44472}],"materials":[{"pbrMetallicRoughness":{"baseColorTexture":{"index":0},"metallicFactor":0.0,"roughnessFactor":0.3048167},"name":"rocket"}],"textures":[{"sampler":0,"source":0,"name":"rocket.png"}],"images":[{"uri":"./rocket.png"}],"samplers":[{"magFilter":9729,"minFilter":9987}]}