{"asset":{"version":"2.0","generator":"babylon.js glTF exporter for 3dsmax 2021 v20210519.2"},"scene":0,"scenes":[{"nodes":[0]}],"nodes":[{"mesh":0,"translation":[0.0,0.0,-0.176516667],"scale":[0.0275319368,0.0275319368,0.0275319368],"name":"fishB"}],"meshes":[{"primitives":[{"attributes":{"POSITION":1,"NORMAL":2,"TEXCOORD_0":3},"indices":0,"material":0}],"name":"fishB"}],"accessors":[{"bufferView":0,"componentType":5123,"count":1968,"type":"SCALAR","name":"accessorIndices"},{"bufferView":1,"componentType":5126,"count":1968,"max":[13.2758675,22.7086735,47.78425],"min":[-13.2758665,-17.5026112,-45.19703],"type":"VEC3","name":"accessorPositions"},{"bufferView":1,"byteOffset":23616,"componentType":5126,"count":1968,"type":"VEC3","name":"accessorNormals"},{"bufferView":2,"componentType":5126,"count":1968,"type":"VEC2","name":"accessorUVs"}],"bufferViews":[{"buffer":0,"byteLength":3936,"name":"bufferViewScalar"},{"buffer":0,"byteOffset":3936,"byteLength":47232,"byteStride":12,"name":"bufferViewFloatVec3"},{"buffer":0,"byteOffset":51168,"byteLength":15744,"byteStride":8,"name":"bufferViewFloatVec2"}],"buffers":[{"uri":"fishB.bin","byteLength":66912}],"materials":[{"pbrMetallicRoughness":{"baseColorTexture":{"index":0},"metallicFactor":0.0,"roughnessFactor":0.3048167},"name":"fish02"}],"textures":[{"sampler":0,"source":0,"name":"fish02.png"}],"images":[{"uri":"./fish02.png"}],"samplers":[{"magFilter":9729,"minFilter":9987}]}