{"asset":{"version":"2.0","generator":"babylon.js glTF exporter for 3dsmax 2021 v20210519.2"},"scene":0,"scenes":[{"nodes":[0]}],"nodes":[{"mesh":0,"name":"GeoSphere013"}],"meshes":[{"primitives":[{"attributes":{"POSITION":1,"NORMAL":2,"TEXCOORD_0":3},"indices":0,"material":0}],"name":"GeoSphere013"}],"accessors":[{"bufferView":0,"componentType":5123,"count":3504,"type":"SCALAR","name":"accessorIndices"},{"bufferView":1,"componentType":5126,"count":3504,"max":[0.9352145,0.9083459,0.9434206],"min":[-0.927526,-0.933675766,-0.933675766],"type":"VEC3","name":"accessorPositions"},{"bufferView":1,"byteOffset":42048,"componentType":5126,"count":3504,"type":"VEC3","name":"accessorNormals"},{"bufferView":2,"componentType":5126,"count":3504,"type":"VEC2","name":"accessorUVs"}],"bufferViews":[{"buffer":0,"byteLength":7008,"name":"bufferViewScalar"},{"buffer":0,"byteOffset":7008,"byteLength":84096,"byteStride":12,"name":"bufferViewFloatVec3"},{"buffer":0,"byteOffset":91104,"byteLength":28032,"byteStride":8,"name":"bufferViewFloatVec2"}],"buffers":[{"uri":"moon.bin","byteLength":119136}],"materials":[{"pbrMetallicRoughness":{"baseColorTexture":{"index":0},"metallicFactor":0.0,"roughnessFactor":0.3048167},"name":"moon"}],"textures":[{"sampler":0,"source":0,"name":"moon.png"}],"images":[{"uri":"./moon.png"}],"samplers":[{"magFilter":9729,"minFilter":9987}]}