{"asset":{"version":"2.0","generator":"babylon.js glTF exporter for 3dsmax 2021 v20210519.2"},"scene":0,"scenes":[{"nodes":[0,1,2]}],"nodes":[{"mesh":0,"rotation":[-0.112589329,-0.0284438822,-0.243281379,0.962979138],"name":"GeoSphere014"},{"mesh":1,"scale":[1.261225,1.261225,1.261225],"name":"Torus001"},{"mesh":2,"translation":[-0.8460673,0.0,0.0],"rotation":[-0.1348767,-0.0370811559,-0.262484252,0.9547436],"scale":[0.2512626,0.2512626,0.2512626],"name":"GeoSphere015"}],"meshes":[{"primitives":[{"attributes":{"POSITION":1,"NORMAL":2,"TEXCOORD_0":3},"indices":0,"material":0}],"name":"GeoSphere014"},{"primitives":[{"attributes":{"POSITION":5,"NORMAL":6,"TEXCOORD_0":7},"indices":4,"material":0}],"name":"Torus001"},{"primitives":[{"attributes":{"POSITION":9,"NORMAL":10,"TEXCOORD_0":11},"indices":8,"material":0}],"name":"GeoSphere015"}],"accessors":[{"bufferView":0,"componentType":5123,"count":540,"type":"SCALAR","name":"accessorIndices"},{"bufferView":1,"componentType":5126,"count":540,"max":[0.499673873,0.5070486,0.498440683],"min":[-0.499673873,-0.5070486,-0.498440653],"type":"VEC3","name":"accessorPositions"},{"bufferView":1,"byteOffset":6480,"componentType":5126,"count":540,"type":"VEC3","name":"accessorNormals"},{"bufferView":2,"componentType":5126,"count":540,"type":"VEC2","name":"accessorUVs"},{"bufferView":0,"byteOffset":1080,"componentType":5123,"count":2016,"type":"SCALAR","name":"accessorIndices"},{"bufferView":1,"byteOffset":12960,"componentType":5126,"count":2016,"max":[0.697171032,0.0199415032,0.697171032],"min":[-0.697171032,-0.0199415032,-0.697171032],"type":"VEC3","name":"accessorPositions"},{"bufferView":1,"byteOffset":37152,"componentType":5126,"count":2016,"type":"VEC3","name":"accessorNormals"},{"bufferView":2,"byteOffset":4320,"componentType":5126,"count":2016,"type":"VEC2","name":"accessorUVs"},{"bufferView":0,"byteOffset":5112,"componentType":5123,"count":240,"type":"SCALAR","name":"accessorIndices"},{"bufferView":1,"byteOffset":61344,"componentType":5126,"count":240,"max":[0.4822319,0.5070486,0.5070486],"min":[-0.4822319,-0.5070486,-0.507048547],"type":"VEC3","name":"accessorPositions"},{"bufferView":1,"byteOffset":64224,"componentType":5126,"count":240,"type":"VEC3","name":"accessorNormals"},{"bufferView":2,"byteOffset":20448,"componentType":5126,"count":240,"type":"VEC2","name":"accessorUVs"}],"bufferViews":[{"buffer":0,"byteLength":5592,"name":"bufferViewScalar"},{"buffer":0,"byteOffset":5592,"byteLength":67104,"byteStride":12,"name":"bufferViewFloatVec3"},{"buffer":0,"byteOffset":72696,"byteLength":22368,"byteStride":8,"name":"bufferViewFloatVec2"}],"buffers":[{"uri":"atom.bin","byteLength":95064}],"materials":[{"pbrMetallicRoughness":{"baseColorTexture":{"index":0},"metallicFactor":0.0,"roughnessFactor":0.3048167},"name":"Mat"}],"textures":[{"sampler":0,"source":0,"name":"atom_DIFF.png"}],"images":[{"uri":"./atom_DIFF.png"}],"samplers":[{"magFilter":9729,"minFilter":9987}]}