{"asset":{"version":"2.0","generator":"babylon.js glTF exporter for 3dsmax 2021 v20210519.2"},"scene":0,"scenes":[{"nodes":[0,1,2,3,4,5,6,7,8,9,10,11,12]}],"nodes":[{"mesh":0,"translation":[0.40014,0.0,0.0935299844],"name":"land"},{"mesh":1,"translation":[0.08862077,0.0,0.11525768],"name":"Line001"},{"mesh":2,"translation":[0.6710182,0.134879917,-0.224008828],"scale":[1.164475,1.164475,1.164475],"name":"Cone001"},{"mesh":3,"translation":[0.4838703,0.151648581,-0.189445391],"rotation":[0.0,0.242233574,0.0,0.970218],"scale":[0.653897762,0.653897762,0.653897762],"name":"Cone002"},{"mesh":4,"translation":[0.414701134,0.07485317,-0.1933979],"scale":[0.469127417,0.469127417,0.469127417],"name":"Cylinder006"},{"mesh":5,"translation":[0.1326014,0.08331077,-0.111627728],"rotation":[0.0150831239,0.0,0.0,0.9998863],"scale":[0.7470352,0.747035146,0.747035146],"name":"group2147292915"},{"mesh":6,"translation":[0.459113151,0.0911771953,0.770671546],"rotation":[-0.01033619,0.272201568,-0.07176691,0.9595046],"scale":[0.7470352,0.747035265,0.747035146],"name":"group2147292921"},{"mesh":7,"translation":[-0.195424959,0.01318069,-0.0829568356],"rotation":[0.0,-0.3891608,0.0,0.9211698],"scale":[0.449057966,0.449057966,0.449057966],"name":"Cylinder012"},{"mesh":8,"translation":[0.40014,0.001732788,0.0935299844],"name":"Object002"},{"mesh":9,"translation":[-0.144593135,0.09132564,-0.27945292],"rotation":[0.0,0.326884747,0.0,0.9450642],"scale":[0.606713235,0.606713235,0.606713235],"name":"group2147292927"},{"mesh":10,"translation":[-0.2585975,0.0,0.478369981],"scale":[0.406351268,0.496125132,0.406351268],"name":"Box003"},{"mesh":11,"translation":[-0.56875366,0.00659759529,0.484971225],"rotation":[0.0,-0.9544363,0.0,-0.298414767],"scale":[0.99999994,1.0,0.99999994],"name":"Box004"},{"mesh":12,"translation":[0.04313713,0.0464372225,-0.422398448],"name":"Box005"}],"meshes":[{"primitives":[{"attributes":{"POSITION":1,"NORMAL":2,"TEXCOORD_0":3},"indices":0,"material":0}],"name":"land"},{"primitives":[{"attributes":{"POSITION":5,"NORMAL":6,"TEXCOORD_0":7},"indices":4,"material":0}],"name":"Line001"},{"primitives":[{"attributes":{"POSITION":9,"NORMAL":10,"TEXCOORD_0":11},"indices":8,"material":0}],"name":"Cone001"},{"primitives":[{"attributes":{"POSITION":13,"NORMAL":14,"TEXCOORD_0":15},"indices":12,"material":0}],"name":"Cone002"},{"primitives":[{"attributes":{"POSITION":17,"NORMAL":18,"TEXCOORD_0":19},"indices":16,"material":0}],"name":"Cylinder006"},{"primitives":[{"attributes":{"POSITION":21,"NORMAL":22,"TEXCOORD_0":23},"indices":20,"material":0}],"name":"group2147292915"},{"primitives":[{"attributes":{"POSITION":25,"NORMAL":26,"TEXCOORD_0":27},"indices":24,"material":0}],"name":"group2147292921"},{"primitives":[{"attributes":{"POSITION":29,"NORMAL":30,"TEXCOORD_0":31},"indices":28,"material":0}],"name":"Cylinder012"},{"primitives":[{"attributes":{"POSITION":33,"NORMAL":34,"TEXCOORD_0":35},"indices":32,"material":0}],"name":"Object002"},{"primitives":[{"attributes":{"POSITION":37,"NORMAL":38,"TEXCOORD_0":39},"indices":36,"material":0}],"name":"group2147292927"},{"primitives":[{"attributes":{"POSITION":41,"NORMAL":42,"TEXCOORD_0":43},"indices":40,"material":0}],"name":"Box003"},{"primitives":[{"attributes":{"POSITION":45,"NORMAL":46,"TEXCOORD_0":47},"indices":44,"material":0}],"name":"Box004"},{"primitives":[{"attributes":{"POSITION":49,"NORMAL":50,"TEXCOORD_0":51},"indices":48,"material":0}],"name":"Box005"}],"accessors":[{"bufferView":0,"componentType":5123,"count":423,"type":"SCALAR","name":"accessorIndices"},{"bufferView":1,"componentType":5126,"count":423,"max":[0.5424338,0.156793147,0.646760345],"min":[-0.966985762,-4.76837158E-06,-0.5374012],"type":"VEC3","name":"accessorPositions"},{"bufferView":1,"byteOffset":5076,"componentType":5126,"count":423,"type":"VEC3","name":"accessorNormals"},{"bufferView":2,"componentType":5126,"count":423,"type":"VEC2","name":"accessorUVs"},{"bufferView":0,"byteOffset":848,"componentType":5123,"count":189,"type":"SCALAR","name":"accessorIndices"},{"bufferView":1,"byteOffset":10152,"componentType":5126,"count":189,"max":[1.01207554,0.0,0.7420336],"min":[-0.7590918,-0.06598327,-0.695977449],"type":"VEC3","name":"accessorPositions"},{"bufferView":1,"byteOffset":12420,"componentType":5126,"count":189,"type":"VEC3","name":"accessorNormals"},{"bufferView":2,"byteOffset":3384,"componentType":5126,"count":189,"type":"VEC2","name":"accessorUVs"},{"bufferView":0,"byteOffset":1228,"componentType":5123,"count":372,"type":"SCALAR","name":"accessorIndices"},{"bufferView":1,"byteOffset":14688,"componentType":5126,"count":372,"max":[0.181650653,0.240780517,0.585876465],"min":[-0.176660746,-0.004426188,-0.07708687],"type":"VEC3","name":"accessorPositions"},{"bufferView":1,"byteOffset":19152,"componentType":5126,"count":372,"type":"VEC3","name":"accessorNormals"},{"bufferView":2,"byteOffset":4896,"componentType":5126,"count":372,"type":"VEC2","name":"accessorUVs"},{"bufferView":0,"byteOffset":1972,"componentType":5123,"count":1530,"type":"SCALAR","name":"accessorIndices"},{"bufferView":1,"byteOffset":23616,"componentType":5126,"count":1530,"max":[0.1363385,0.145930037,0.8254426],"min":[-1.51038921,-0.1637974,-0.375721663],"type":"VEC3","name":"accessorPositions"},{"bufferView":1,"byteOffset":41976,"componentType":5126,"count":1530,"type":"VEC3","name":"accessorNormals"},{"bufferView":2,"byteOffset":7872,"componentType":5126,"count":1530,"type":"VEC2","name":"accessorUVs"},{"bufferView":0,"byteOffset":5032,"componentType":5123,"count":24,"type":"SCALAR","name":"accessorIndices"},{"bufferView":1,"byteOffset":60336,"componentType":5126,"count":24,"max":[0.00855860952,0.09799577,0.00960207451],"min":[-0.00855860952,0.04637569,-0.008558608],"type":"VEC3","name":"accessorPositions"},{"bufferView":1,"byteOffset":60624,"componentType":5126,"count":24,"type":"VEC3","name":"accessorNormals"},{"bufferView":2,"byteOffset":20112,"componentType":5126,"count":24,"type":"VEC2","name":"accessorUVs"},{"bufferView":0,"byteOffset":5080,"componentType":5123,"count":858,"type":"SCALAR","name":"accessorIndices"},{"bufferView":1,"byteOffset":60912,"componentType":5126,"count":858,"max":[0.386333376,0.4196453,0.6390122],"min":[-0.8410155,-0.1326982,-0.295278549],"type":"VEC3","name":"accessorPositions"},{"bufferView":1,"byteOffset":71208,"componentType":5126,"count":858,"type":"VEC3","name":"accessorNormals"},{"bufferView":2,"byteOffset":20304,"componentType":5126,"count":858,"type":"VEC2","name":"accessorUVs"},{"bufferView":0,"byteOffset":6796,"componentType":5123,"count":354,"type":"SCALAR","name":"accessorIndices"},{"bufferView":1,"byteOffset":81504,"componentType":5126,"count":354,"max":[-0.167231426,0.0361117721,-0.550559163],"min":[-0.397028953,-0.146045,-0.804539442],"type":"VEC3","name":"accessorPositions"},{"bufferView":1,"byteOffset":85752,"componentType":5126,"count":354,"type":"VEC3","name":"accessorNormals"},{"bufferView":2,"byteOffset":27168,"componentType":5126,"count":354,"type":"VEC2","name":"accessorUVs"},{"bufferView":0,"byteOffset":7504,"componentType":5123,"count":384,"type":"SCALAR","name":"accessorIndices"},{"bufferView":1,"byteOffset":90000,"componentType":5126,"count":384,"max":[1.78397346,0.328412384,0.875768244],"min":[-0.0123650711,0.0233433265,-1.43062544],"type":"VEC3","name":"accessorPositions"},{"bufferView":1,"byteOffset":94608,"componentType":5126,"count":384,"type":"VEC3","name":"accessorNormals"},{"bufferView":2,"byteOffset":30000,"componentType":5126,"count":384,"type":"VEC2","name":"accessorUVs"},{"bufferView":0,"byteOffset":8272,"componentType":5123,"count":81,"type":"SCALAR","name":"accessorIndices"},{"bufferView":1,"byteOffset":99216,"componentType":5126,"count":81,"max":[0.0110738,0.144212469,0.253927231],"min":[-0.604710162,0.04157089,-0.40823558],"type":"VEC3","name":"accessorPositions"},{"bufferView":1,"byteOffset":100188,"componentType":5126,"count":81,"type":"VEC3","name":"accessorNormals"},{"bufferView":2,"byteOffset":33072,"componentType":5126,"count":81,"type":"VEC2","name":"accessorUVs"},{"bufferView":0,"byteOffset":8436,"componentType":5123,"count":144,"type":"SCALAR","name":"accessorIndices"},{"bufferView":1,"byteOffset":101160,"componentType":5126,"count":144,"max":[-0.08428059,0.1067915,0.8777246],"min":[-0.257767379,-0.0998206139,0.731307745],"type":"VEC3","name":"accessorPositions"},{"bufferView":1,"byteOffset":102888,"componentType":5126,"count":144,"type":"VEC3","name":"accessorNormals"},{"bufferView":2,"byteOffset":33720,"componentType":5126,"count":144,"type":"VEC2","name":"accessorUVs"},{"bufferView":0,"byteOffset":8724,"componentType":5123,"count":138,"type":"SCALAR","name":"accessorIndices"},{"bufferView":1,"byteOffset":104616,"componentType":5126,"count":138,"max":[0.05700049,0.098491244,0.130963251],"min":[-0.05700049,0.0,-0.126687244],"type":"VEC3","name":"accessorPositions"},{"bufferView":1,"byteOffset":106272,"componentType":5126,"count":138,"type":"VEC3","name":"accessorNormals"},{"bufferView":2,"byteOffset":34872,"componentType":5126,"count":138,"type":"VEC2","name":"accessorUVs"},{"bufferView":0,"byteOffset":9000,"componentType":5123,"count":30,"type":"SCALAR","name":"accessorIndices"},{"bufferView":1,"byteOffset":107928,"componentType":5126,"count":30,"max":[0.0662897453,0.0483183861,0.4076506],"min":[-0.13103351,-4.76837158E-06,0.1929281],"type":"VEC3","name":"accessorPositions"},{"bufferView":1,"byteOffset":108288,"componentType":5126,"count":30,"type":"VEC3","name":"accessorNormals"},{"bufferView":2,"byteOffset":35976,"componentType":5126,"count":30,"type":"VEC2","name":"accessorUVs"},{"bufferView":0,"byteOffset":9060,"componentType":5123,"count":42,"type":"SCALAR","name":"accessorIndices"},{"bufferView":1,"byteOffset":108648,"componentType":5126,"count":42,"max":[0.01885393,0.0453867055,0.3693514],"min":[-0.108178854,-4.76837158E-06,0.216744184],"type":"VEC3","name":"accessorPositions"},{"bufferView":1,"byteOffset":109152,"componentType":5126,"count":42,"type":"VEC3","name":"accessorNormals"},{"bufferView":2,"byteOffset":36216,"componentType":5126,"count":42,"type":"VEC2","name":"accessorUVs"}],"bufferViews":[{"buffer":0,"byteLength":9144,"name":"bufferViewScalar"},{"buffer":0,"byteOffset":9144,"byteLength":109656,"byteStride":12,"name":"bufferViewFloatVec3"},{"buffer":0,"byteOffset":118800,"byteLength":36552,"byteStride":8,"name":"bufferViewFloatVec2"}],"buffers":[{"uri":"island.bin","byteLength":155352}],"materials":[{"pbrMetallicRoughness":{"baseColorTexture":{"index":0},"metallicFactor":0.0,"roughnessFactor":0.40593794},"name":"island"}],"textures":[{"sampler":0,"source":0,"name":"island.png"}],"images":[{"uri":"./island.png"}],"samplers":[{"magFilter":9729,"minFilter":9987}]}