{"asset":{"version":"2.0","generator":"babylon.js glTF exporter for 3dsmax 2021 v20210519.2"},"scene":0,"scenes":[{"nodes":[0,1,2,3,4,5,6,7,8,9,10,11,12,13,14]}],"nodes":[{"mesh":0,"translation":[0.40014,0.0,0.0935299844],"name":"land"},{"mesh":1,"translation":[0.08862077,0.0,0.11525768],"name":"water"},{"mesh":2,"translation":[0.6710182,0.134879917,-0.224008828],"scale":[1.164475,1.164475,1.164475],"name":"mountains"},{"mesh":3,"translation":[0.1326014,0.08331077,-0.111627728],"rotation":[0.0150831239,0.0,0.0,0.9998863],"scale":[0.7470352,0.747035146,0.747035146],"name":"buildings"},{"mesh":4,"translation":[-0.195424959,0.01318069,-0.0829568356],"rotation":[0.0,-0.3891608,0.0,0.9211698],"scale":[0.449057966,0.449057966,0.449057966],"name":"tree"},{"mesh":5,"translation":[0.40014,0.001732788,0.0935299844],"name":"road"},{"mesh":6,"translation":[-0.144593135,0.09132564,-0.27945292],"rotation":[0.0,0.326884747,0.0,0.9450642],"scale":[0.606713235,0.606713235,0.606713235],"name":"pillars"},{"mesh":7,"translation":[-0.2585975,0.0,0.478369981],"scale":[0.406351268,0.496125132,0.406351268],"name":"boat"},{"mesh":8,"translation":[-0.56875366,0.00659759529,0.484971225],"rotation":[0.0,-0.9544363,0.0,-0.298414767],"scale":[0.99999994,1.0,0.99999994],"name":"Box004"},{"mesh":9,"translation":[0.04313713,0.0464372225,-0.422398448],"name":"Box005"},{"mesh":10,"translation":[0.901843,0.148357645,-0.118127055],"rotation":[0.002462272,0.0425839275,-0.0576726831,0.9974239],"scale":[0.390980124,0.3909801,0.3909801],"name":"truck"},{"mesh":11,"translation":[-0.285318762,0.0451753624,0.7459311],"rotation":[0.0,0.6123478,0.0,0.7905885],"scale":[0.06655534,0.06655534,0.06655534],"name":"port"},{"mesh":12,"translation":[-0.330878854,0.03073965,0.853807449],"rotation":[0.0,0.616276741,0.0,0.787529647],"scale":[0.0740777254,0.0740777254,0.0740777254],"name":"tanker"},{"mesh":13,"translation":[-0.388287276,0.0324270539,0.774000168],"rotation":[-0.031636022,0.6163139,-0.04828419,0.7853821],"scale":[0.390980124,0.3909801,0.3909801],"name":"truck001"},{"mesh":14,"translation":[-0.18515034,0.0324270539,0.8276815],"rotation":[-0.031636022,0.6163139,-0.04828419,0.7853821],"scale":[0.390980124,0.3909801,0.3909801],"name":"truck002"}],"meshes":[{"primitives":[{"attributes":{"POSITION":1,"NORMAL":2,"TEXCOORD_0":3},"indices":0,"material":0}],"name":"land"},{"primitives":[{"attributes":{"POSITION":5,"NORMAL":6,"TEXCOORD_0":7},"indices":4,"material":0}],"name":"water"},{"primitives":[{"attributes":{"POSITION":9,"NORMAL":10,"TEXCOORD_0":11},"indices":8,"material":0}],"name":"mountains"},{"primitives":[{"attributes":{"POSITION":13,"NORMAL":14,"TEXCOORD_0":15},"indices":12,"material":0}],"name":"buildings"},{"primitives":[{"attributes":{"POSITION":17,"NORMAL":18,"TEXCOORD_0":19},"indices":16,"material":0}],"name":"tree"},{"primitives":[{"attributes":{"POSITION":21,"NORMAL":22,"TEXCOORD_0":23},"indices":20,"material":0}],"name":"road"},{"primitives":[{"attributes":{"POSITION":25,"NORMAL":26,"TEXCOORD_0":27},"indices":24,"material":0}],"name":"pillars"},{"primitives":[{"attributes":{"POSITION":29,"NORMAL":30,"TEXCOORD_0":31},"indices":28,"material":0}],"name":"boat"},{"primitives":[{"attributes":{"POSITION":33,"NORMAL":34,"TEXCOORD_0":35},"indices":32,"material":0}],"name":"Box004"},{"primitives":[{"attributes":{"POSITION":37,"NORMAL":38,"TEXCOORD_0":39},"indices":36,"material":0}],"name":"Box005"},{"primitives":[{"attributes":{"POSITION":41,"NORMAL":42,"TEXCOORD_0":43},"indices":40,"material":0}],"name":"truck"},{"primitives":[{"attributes":{"POSITION":45,"NORMAL":46,"TEXCOORD_0":47},"indices":44,"material":0}],"name":"port"},{"primitives":[{"attributes":{"POSITION":49,"NORMAL":50,"TEXCOORD_0":51},"indices":48,"material":0}],"name":"tanker"},{"primitives":[{"attributes":{"POSITION":53,"NORMAL":54,"TEXCOORD_0":55},"indices":52,"material":0}],"name":"truck001"},{"primitives":[{"attributes":{"POSITION":57,"NORMAL":58,"TEXCOORD_0":59},"indices":56,"material":0}],"name":"truck002"}],"accessors":[{"bufferView":0,"componentType":5123,"count":447,"type":"SCALAR","name":"accessorIndices"},{"bufferView":1,"componentType":5126,"count":447,"max":[0.5424338,0.156793147,0.646760345],"min":[-0.966985762,-4.76837158E-06,-0.5374012],"type":"VEC3","name":"accessorPositions"},{"bufferView":1,"byteOffset":5364,"componentType":5126,"count":447,"type":"VEC3","name":"accessorNormals"},{"bufferView":2,"componentType":5126,"count":447,"type":"VEC2","name":"accessorUVs"},{"bufferView":0,"byteOffset":896,"componentType":5123,"count":189,"type":"SCALAR","name":"accessorIndices"},{"bufferView":1,"byteOffset":10728,"componentType":5126,"count":189,"max":[1.01207554,0.0,0.8913803],"min":[-0.7590918,-0.06598327,-0.695977449],"type":"VEC3","name":"accessorPositions"},{"bufferView":1,"byteOffset":12996,"componentType":5126,"count":189,"type":"VEC3","name":"accessorNormals"},{"bufferView":2,"byteOffset":3576,"componentType":5126,"count":189,"type":"VEC2","name":"accessorUVs"},{"bufferView":0,"byteOffset":1276,"componentType":5123,"count":372,"type":"SCALAR","name":"accessorIndices"},{"bufferView":1,"byteOffset":15264,"componentType":5126,"count":372,"max":[0.181650653,0.240780517,0.585876465],"min":[-0.176660746,-0.004426188,-0.07708687],"type":"VEC3","name":"accessorPositions"},{"bufferView":1,"byteOffset":19728,"componentType":5126,"count":372,"type":"VEC3","name":"accessorNormals"},{"bufferView":2,"byteOffset":5088,"componentType":5126,"count":372,"type":"VEC2","name":"accessorUVs"},{"bufferView":0,"byteOffset":2020,"componentType":5123,"count":1188,"type":"SCALAR","name":"accessorIndices"},{"bufferView":1,"byteOffset":24192,"componentType":5126,"count":1188,"max":[0.386333376,0.4196453,0.862043262],"min":[-0.8410155,-0.1326982,-0.295278549],"type":"VEC3","name":"accessorPositions"},{"bufferView":1,"byteOffset":38448,"componentType":5126,"count":1188,"type":"VEC3","name":"accessorNormals"},{"bufferView":2,"byteOffset":8064,"componentType":5126,"count":1188,"type":"VEC2","name":"accessorUVs"},{"bufferView":0,"byteOffset":4396,"componentType":5123,"count":1914,"type":"SCALAR","name":"accessorIndices"},{"bufferView":1,"byteOffset":52704,"componentType":5126,"count":1914,"max":[1.83888268,0.520848632,0.899867058],"min":[-0.04687271,0.0233433265,-1.48518646],"type":"VEC3","name":"accessorPositions"},{"bufferView":1,"byteOffset":75672,"componentType":5126,"count":1914,"type":"VEC3","name":"accessorNormals"},{"bufferView":2,"byteOffset":17568,"componentType":5126,"count":1914,"type":"VEC2","name":"accessorUVs"},{"bufferView":0,"byteOffset":8224,"componentType":5123,"count":339,"type":"SCALAR","name":"accessorIndices"},{"bufferView":1,"byteOffset":98640,"componentType":5126,"count":339,"max":[0.5438508,0.144212469,0.7719311],"min":[-0.9898777,0.0119101042,-0.539769053],"type":"VEC3","name":"accessorPositions"},{"bufferView":1,"byteOffset":102708,"componentType":5126,"count":339,"type":"VEC3","name":"accessorNormals"},{"bufferView":2,"byteOffset":32880,"componentType":5126,"count":339,"type":"VEC2","name":"accessorUVs"},{"bufferView":0,"byteOffset":8904,"componentType":5123,"count":432,"type":"SCALAR","name":"accessorIndices"},{"bufferView":1,"byteOffset":106776,"componentType":5126,"count":432,"max":[1.31127274,0.1067915,1.9305917],"min":[-0.257767379,-0.175649047,0.416217536],"type":"VEC3","name":"accessorPositions"},{"bufferView":1,"byteOffset":111960,"componentType":5126,"count":432,"type":"VEC3","name":"accessorNormals"},{"bufferView":2,"byteOffset":35592,"componentType":5126,"count":432,"type":"VEC2","name":"accessorUVs"},{"bufferView":0,"byteOffset":9768,"componentType":5123,"count":138,"type":"SCALAR","name":"accessorIndices"},{"bufferView":1,"byteOffset":117144,"componentType":5126,"count":138,"max":[0.05700049,0.098491244,0.130963251],"min":[-0.05700049,0.0,-0.126687244],"type":"VEC3","name":"accessorPositions"},{"bufferView":1,"byteOffset":118800,"componentType":5126,"count":138,"type":"VEC3","name":"accessorNormals"},{"bufferView":2,"byteOffset":39048,"componentType":5126,"count":138,"type":"VEC2","name":"accessorUVs"},{"bufferView":0,"byteOffset":10044,"componentType":5123,"count":30,"type":"SCALAR","name":"accessorIndices"},{"bufferView":1,"byteOffset":120456,"componentType":5126,"count":30,"max":[0.0662897453,0.0483183861,0.4076506],"min":[-0.13103351,-4.76837158E-06,0.1929281],"type":"VEC3","name":"accessorPositions"},{"bufferView":1,"byteOffset":120816,"componentType":5126,"count":30,"type":"VEC3","name":"accessorNormals"},{"bufferView":2,"byteOffset":40152,"componentType":5126,"count":30,"type":"VEC2","name":"accessorUVs"},{"bufferView":0,"byteOffset":10104,"componentType":5123,"count":42,"type":"SCALAR","name":"accessorIndices"},{"bufferView":1,"byteOffset":121176,"componentType":5126,"count":42,"max":[0.01885393,0.0453867055,0.3693514],"min":[-0.108178854,-4.76837158E-06,0.216744184],"type":"VEC3","name":"accessorPositions"},{"bufferView":1,"byteOffset":121680,"componentType":5126,"count":42,"type":"VEC3","name":"accessorNormals"},{"bufferView":2,"byteOffset":40392,"componentType":5126,"count":42,"type":"VEC2","name":"accessorUVs"},{"bufferView":0,"byteOffset":10188,"componentType":5123,"count":852,"type":"SCALAR","name":"accessorIndices"},{"bufferView":1,"byteOffset":122184,"componentType":5126,"count":852,"max":[0.0369125567,0.0679318756,0.08186751],"min":[-0.0382843874,-0.0300134867,-0.127004951],"type":"VEC3","name":"accessorPositions"},{"bufferView":1,"byteOffset":132408,"componentType":5126,"count":852,"type":"VEC3","name":"accessorNormals"},{"bufferView":2,"byteOffset":40728,"componentType":5126,"count":852,"type":"VEC2","name":"accessorUVs"},{"bufferView":0,"byteOffset":11892,"componentType":5123,"count":2124,"type":"SCALAR","name":"accessorIndices"},{"bufferView":1,"byteOffset":142632,"componentType":5126,"count":2124,"max":[1.55224943,1.9178704,2.711671],"min":[-1.18418384,-0.872436643,-1.97495878],"type":"VEC3","name":"accessorPositions"},{"bufferView":1,"byteOffset":168120,"componentType":5126,"count":2124,"type":"VEC3","name":"accessorNormals"},{"bufferView":2,"byteOffset":47544,"componentType":5126,"count":2124,"type":"VEC2","name":"accessorUVs"},{"bufferView":0,"byteOffset":16140,"componentType":5123,"count":3000,"type":"SCALAR","name":"accessorIndices"},{"bufferView":1,"byteOffset":193608,"componentType":5126,"count":3000,"max":[0.398503333,0.7235812,1.85000086],"min":[-0.398503244,-0.7235812,-1.85000086],"type":"VEC3","name":"accessorPositions"},{"bufferView":1,"byteOffset":229608,"componentType":5126,"count":3000,"type":"VEC3","name":"accessorNormals"},{"bufferView":2,"byteOffset":64536,"componentType":5126,"count":3000,"type":"VEC2","name":"accessorUVs"},{"bufferView":0,"byteOffset":22140,"componentType":5123,"count":852,"type":"SCALAR","name":"accessorIndices"},{"bufferView":1,"byteOffset":265608,"componentType":5126,"count":852,"max":[0.0369125567,0.0679318756,0.08186751],"min":[-0.0382843874,-0.0300134867,-0.127004951],"type":"VEC3","name":"accessorPositions"},{"bufferView":1,"byteOffset":275832,"componentType":5126,"count":852,"type":"VEC3","name":"accessorNormals"},{"bufferView":2,"byteOffset":88536,"componentType":5126,"count":852,"type":"VEC2","name":"accessorUVs"},{"bufferView":0,"byteOffset":23844,"componentType":5123,"count":852,"type":"SCALAR","name":"accessorIndices"},{"bufferView":1,"byteOffset":286056,"componentType":5126,"count":852,"max":[0.0369125567,0.0679318756,0.08186751],"min":[-0.0382843874,-0.0300134867,-0.127004951],"type":"VEC3","name":"accessorPositions"},{"bufferView":1,"byteOffset":296280,"componentType":5126,"count":852,"type":"VEC3","name":"accessorNormals"},{"bufferView":2,"byteOffset":95352,"componentType":5126,"count":852,"type":"VEC2","name":"accessorUVs"}],"bufferViews":[{"buffer":0,"byteLength":25548,"name":"bufferViewScalar"},{"buffer":0,"byteOffset":25548,"byteLength":306504,"byteStride":12,"name":"bufferViewFloatVec3"},{"buffer":0,"byteOffset":332052,"byteLength":102168,"byteStride":8,"name":"bufferViewFloatVec2"}],"buffers":[{"uri":"island.bin","byteLength":434220}],"materials":[{"pbrMetallicRoughness":{"baseColorTexture":{"index":0},"metallicFactor":0.0,"roughnessFactor":0.40593794},"name":"island"}],"textures":[{"sampler":0,"source":0,"name":"island.png"}],"images":[{"uri":"./island.png"}],"samplers":[{"magFilter":9729,"minFilter":9987}]}