{"asset":{"version":"2.0","generator":"babylon.js glTF exporter for 3dsmax 2021 v20210519.2"},"scene":0,"scenes":[{"nodes":[0,1,2]}],"nodes":[{"mesh":0,"translation":[0.114379957,-0.08534775,7.332906E-10],"rotation":[0.6982325,0.111675479,0.111675479,0.6982325],"scale":[0.652688265,0.652688265,0.652688265],"name":"bun"},{"mesh":1,"translation":[0.104618452,-0.05561206,1.37244174E-10],"rotation":[0.698232532,0.111675486,0.111675471,0.6982324],"scale":[0.652688265,0.652688265,0.652688265],"name":"bog"},{"mesh":2,"translation":[-0.482153624,0.3017888,-0.00754886633],"rotation":[0.0,0.0,0.157932967,0.9874499],"name":"mustard"}],"meshes":[{"primitives":[{"attributes":{"POSITION":1,"NORMAL":2,"TEXCOORD_0":3},"indices":0,"material":0}],"name":"bun"},{"primitives":[{"attributes":{"POSITION":5,"NORMAL":6,"TEXCOORD_0":7},"indices":4,"material":0}],"name":"bog"},{"primitives":[{"attributes":{"POSITION":9,"NORMAL":10,"TEXCOORD_0":11},"indices":8,"material":0}],"name":"mustard"}],"accessors":[{"bufferView":0,"componentType":5123,"count":780,"type":"SCALAR","name":"accessorIndices"},{"bufferView":1,"componentType":5126,"count":780,"max":[1.71746552,0.6288135,-0.0138617326],"min":[-1.505053,-0.628813565,-1.6228652],"type":"VEC3","name":"accessorPositions"},{"bufferView":1,"byteOffset":9360,"componentType":5126,"count":780,"type":"VEC3","name":"accessorNormals"},{"bufferView":2,"componentType":5126,"count":780,"type":"VEC2","name":"accessorUVs"},{"bufferView":0,"byteOffset":1560,"componentType":5123,"count":390,"type":"SCALAR","name":"accessorIndices"},{"bufferView":1,"byteOffset":18720,"componentType":5126,"count":390,"max":[1.87011373,0.282896161,-0.27869904],"min":[-1.46927512,-0.28289625,-1.77000093],"type":"VEC3","name":"accessorPositions"},{"bufferView":1,"byteOffset":23400,"componentType":5126,"count":390,"type":"VEC3","name":"accessorNormals"},{"bufferView":2,"byteOffset":6240,"componentType":5126,"count":390,"type":"VEC2","name":"accessorUVs"},{"bufferView":0,"byteOffset":2340,"componentType":5123,"count":453,"type":"SCALAR","name":"accessorIndices"},{"bufferView":1,"byteOffset":28080,"componentType":5126,"count":453,"max":[1.3056308,0.469701767,0.175982073],"min":[-0.139915392,-0.0482316762,-0.133111849],"type":"VEC3","name":"accessorPositions"},{"bufferView":1,"byteOffset":33516,"componentType":5126,"count":453,"type":"VEC3","name":"accessorNormals"},{"bufferView":2,"byteOffset":9360,"componentType":5126,"count":453,"type":"VEC2","name":"accessorUVs"}],"bufferViews":[{"buffer":0,"byteLength":3248,"name":"bufferViewScalar"},{"buffer":0,"byteOffset":3248,"byteLength":38952,"byteStride":12,"name":"bufferViewFloatVec3"},{"buffer":0,"byteOffset":42200,"byteLength":12984,"byteStride":8,"name":"bufferViewFloatVec2"}],"buffers":[{"uri":"hotdog.bin","byteLength":55184}],"materials":[{"pbrMetallicRoughness":{"baseColorTexture":{"index":0},"metallicFactor":0.0,"roughnessFactor":0.450053632},"name":"hotdog"}],"textures":[{"sampler":0,"source":0,"name":"hotdog.png"}],"images":[{"uri":"./hotdog.png"}],"samplers":[{"magFilter":9729,"minFilter":9987}]}