<svg width="173" height="26" viewBox="0 0 173 26" fill="white" xmlns="http://www.w3.org/2000/svg">
<g clip-path="url(#clip0)">
<path d="M19.2369 21.9152V25.6758H2.04929C0.925487 25.6758 0 24.7681 0 23.6658V0.453857H3.83416V21.9152H19.2369Z" fill="#111111"/>
<path d="M60.4207 25.6758L52.3557 7.00252L44.2246 25.6758H39.9277L50.5708 1.29678C50.9014 0.518727 51.6285 0.1297 52.4218 0.1297C53.2151 0.1297 53.8761 0.583565 54.2067 1.29678L64.7176 25.6758H60.4207Z" fill="#111111"/>
<path d="M106.564 0.453857L96.0527 24.7681C95.7222 25.4813 95.0611 25.9352 94.2678 25.9352C93.4745 25.9352 92.7474 25.4813 92.4168 24.7681L81.8398 0.453857H85.9384L94.2017 19.4514L102.465 0.453857H106.564Z" fill="#111111"/>
<path d="M149.07 12.9027C149.136 7.71571 144.839 3.63092 139.749 3.63092C134.593 3.63092 130.362 7.71571 130.362 12.9027C130.362 18.0249 134.593 22.3042 139.749 22.3042C144.905 22.3042 149.07 18.0898 149.07 12.9027ZM126.594 12.9027C126.594 5.6409 132.477 0 139.749 0C146.888 0 152.904 5.6409 152.904 12.9027C152.904 20.1646 147.021 26 139.749 26C132.477 26 126.594 20.1646 126.594 12.9027Z" fill="#111111"/>
<path d="M120.115 15.3666C118.793 15.3666 117.669 14.2644 117.669 12.9676C117.669 11.6708 118.793 10.5686 120.115 10.5686C121.437 10.5686 122.561 11.6708 122.561 12.9676C122.561 14.3292 121.437 15.3666 120.115 15.3666Z" fill="#111111"/>
<path d="M159.382 15.3666C158.06 15.3666 156.937 14.2644 156.937 12.9676C156.937 11.6708 158.06 10.5686 159.382 10.5686C160.705 10.5686 161.828 11.6708 161.828 12.9676C161.828 14.3292 160.771 15.3666 159.382 15.3666Z" fill="#111111"/>
<path d="M173 0.778047V3.89027H172.339V1.62094L171.281 2.9177L170.223 1.62094V3.89027H169.562V0.778047C169.562 0.583533 169.695 0.453857 169.893 0.453857C170.025 0.453857 170.091 0.518695 170.157 0.583533L171.281 1.88029L172.405 0.583533C172.471 0.518695 172.537 0.453857 172.669 0.453857C172.868 0.453857 173 0.583533 173 0.778047ZM165.86 0.518695H168.835V1.16707H167.711V1.94513V3.89027H167.05V1.10224H165.86V0.518695Z" fill="#111111"/>
</g>
<defs>
<clipPath id="clip0">
<rect width="173" height="26" fill="white"/>
</clipPath>
</defs>
</svg>